<?xml version="1.0" encoding="UTF-8"?>
<svg id="Layer_8" data-name="Layer 8" xmlns="http://www.w3.org/2000/svg" viewBox="0 0 461.13 461.13">
  <path d="M174.83,68.82c32.66-3,95.15-8.16,158.16,15.12,23.39,8.64,35.08,12.96,41.19,20.01,24.52,28.28-.31,89.31-49.96,211.38-1.27,3.13-2.43,5.85-5.11,6.89-26.11,10.1-164.25-151.13-165.24-151.52-.4-.16-.64.05-.65.21-.45,7.59-2.46,52.44,21.11,85.92,16.54,23.48,62.47,65.28,62.9,68.75.18,1.45-.07-.02,0,37.36.05,23.82.17,28.16-2.79,30.5-9.47,7.48-40.44-13.39-62.72-33.57-68.78-62.3-82.26-143.02-91.81-200.21-3.31-19.82-5.01-38.22,5.45-54.67,11.49-18.08,38.98-28.16,61.02-29.93,1.49-.12,4.45,1.08,5.08,1.99,24.26,35.27,110.8,161.11,148.27,147.13,19.84-7.4,28.21-54.82,11.15-75.68-14.43-17.65-39.27-7.02-73.65-20.86-40.89-16.46-61.07-54.35-63.12-57.76-.24-.39.17-1.01.71-1.06Z"/>
</svg>